<svg xmlns="http://www.w3.org/2000/svg" xmlns:xlink="http://www.w3.org/1999/xlink" width="1024" zoomAndPan="magnify" viewBox="0 0 768 767.999994" height="1024" preserveAspectRatio="xMidYMid meet" version="1.0"><defs><g/><clipPath id="20e0403b61"><path d="M 134.308594 306.757812 L 429.058594 306.757812 L 429.058594 560.257812 L 134.308594 560.257812 Z M 134.308594 306.757812 " clip-rule="nonzero"/></clipPath><clipPath id="07610399c9"><path d="M 429.292969 433.507812 L 355.546875 560.257812 L 208.054688 560.257812 L 134.308594 433.507812 L 208.054688 306.757812 L 355.546875 306.757812 Z M 429.292969 433.507812 " clip-rule="nonzero"/></clipPath><clipPath id="d710b45494"><path d="M 336.484375 187.125 L 631.234375 187.125 L 631.234375 440.625 L 336.484375 440.625 Z M 336.484375 187.125 " clip-rule="nonzero"/></clipPath><clipPath id="e44ee079e5"><path d="M 631.46875 313.875 L 557.722656 440.625 L 410.230469 440.625 L 336.484375 313.875 L 410.230469 187.125 L 557.722656 187.125 Z M 631.46875 313.875 " clip-rule="nonzero"/></clipPath><clipPath id="be8508ce95"><path d="M 342.167969 426.035156 L 636.914062 426.035156 L 636.914062 679.535156 L 342.167969 679.535156 Z M 342.167969 426.035156 " clip-rule="nonzero"/></clipPath><clipPath id="52cf921654"><path d="M 637.148438 552.785156 L 563.402344 679.535156 L 415.914062 679.535156 L 342.167969 552.785156 L 415.914062 426.035156 L 563.402344 426.035156 Z M 637.148438 552.785156 " clip-rule="nonzero"/></clipPath><clipPath id="7dc112f8fb"><path d="M 326.578125 611.882812 L 651.242188 611.882812 L 651.242188 717.867188 L 326.578125 717.867188 Z M 326.578125 611.882812 " clip-rule="nonzero"/></clipPath><clipPath id="442b33ae20"><path d="M 0.578125 0.882812 L 325.242188 0.882812 L 325.242188 106.867188 L 0.578125 106.867188 Z M 0.578125 0.882812 " clip-rule="nonzero"/></clipPath><clipPath id="99b2b2217d"><rect x="0" width="326" y="0" height="107"/></clipPath><clipPath id="84b6051873"><path d="M 129.058594 67.875 L 423.808594 67.875 L 423.808594 321.371094 L 129.058594 321.371094 Z M 129.058594 67.875 " clip-rule="nonzero"/></clipPath><clipPath id="9c2998bb43"><path d="M 424.042969 194.625 L 350.296875 321.371094 L 202.804688 321.371094 L 129.058594 194.625 L 202.804688 67.875 L 350.296875 67.875 Z M 424.042969 194.625 " clip-rule="nonzero"/></clipPath><clipPath id="94c4dfb63f"><path d="M 132.058594 28.984375 L 440.113281 28.984375 L 440.113281 134.964844 L 132.058594 134.964844 Z M 132.058594 28.984375 " clip-rule="nonzero"/></clipPath><clipPath id="4f3c928869"><path d="M 0.0585938 0.984375 L 308.113281 0.984375 L 308.113281 106.964844 L 0.0585938 106.964844 Z M 0.0585938 0.984375 " clip-rule="nonzero"/></clipPath><clipPath id="63b8e083e2"><rect x="0" width="309" y="0" height="107"/></clipPath><clipPath id="1d65a43808"><path d="M 7.820312 250.859375 L 760.179688 250.859375 L 760.179688 497.019531 L 7.820312 497.019531 Z M 7.820312 250.859375 " clip-rule="nonzero"/></clipPath><clipPath id="843e65dd46"><path d="M 0.820312 0.859375 L 753 0.859375 L 753 247.019531 L 0.820312 247.019531 Z M 0.820312 0.859375 " clip-rule="nonzero"/></clipPath><clipPath id="16de0e297c"><rect x="0" width="754" y="0" height="248"/></clipPath></defs><g clip-path="url(#20e0403b61)"><g clip-path="url(#07610399c9)"><path stroke-linecap="butt" transform="matrix(0.75, 0, 0, 0.75, 134.308604, 306.759408)" fill="none" stroke-linejoin="miter" d="M 393.31253 168.997892 L 294.984394 337.997911 L 98.328122 337.997911 L -0.0000141394 168.997892 L 98.328122 -0.00212736 L 294.984394 -0.00212736 Z M 393.31253 168.997892 " stroke="#e68731" stroke-width="42" stroke-opacity="1" stroke-miterlimit="4"/></g></g><g clip-path="url(#d710b45494)"><g clip-path="url(#e44ee079e5)"><path stroke-linecap="butt" transform="matrix(0.75, 0, 0, 0.75, 336.484498, 187.126124)" fill="none" stroke-linejoin="miter" d="M 393.31238 168.99852 L 294.984244 337.998539 L 98.327972 337.998539 L -0.000164468 168.99852 L 98.327972 -0.00149912 L 294.984244 -0.00149912 Z M 393.31238 168.99852 " stroke="#e68731" stroke-width="42" stroke-opacity="1" stroke-miterlimit="4"/></g></g><g clip-path="url(#be8508ce95)"><g clip-path="url(#52cf921654)"><path stroke-linecap="butt" transform="matrix(0.75, 0, 0, 0.75, 342.165485, 426.034415)" fill="none" stroke-linejoin="miter" d="M 393.310648 169.001008 L 294.982511 338.001027 L 98.331447 338.001027 L 0.00331131 169.001008 L 98.331447 0.00098844 L 294.982511 0.00098844 Z M 393.310648 169.001008 " stroke="#1d5366" stroke-width="42" stroke-opacity="1" stroke-miterlimit="4"/></g></g><g clip-path="url(#7dc112f8fb)"><g transform="matrix(1, 0, 0, 1, 326, 611)"><g clip-path="url(#99b2b2217d)"><g clip-path="url(#442b33ae20)"><path fill="#ffffff" d="M 0.578125 0.882812 L 325.148438 0.882812 L 325.148438 106.867188 L 0.578125 106.867188 Z M 0.578125 0.882812 " fill-opacity="1" fill-rule="nonzero"/></g></g></g></g><g clip-path="url(#84b6051873)"><g clip-path="url(#9c2998bb43)"><path stroke-linecap="butt" transform="matrix(0.75, 0, 0, 0.75, 129.058605, 67.873068)" fill="none" stroke-linejoin="miter" d="M 393.31253 169.002595 L 294.984394 337.997406 L 98.328122 337.997406 L -0.0000144857 169.002595 L 98.328122 0.00257621 L 294.984394 0.00257621 Z M 393.31253 169.002595 " stroke="#4ba28a" stroke-width="42" stroke-opacity="1" stroke-miterlimit="4"/></g></g><g clip-path="url(#94c4dfb63f)"><g transform="matrix(1, 0, 0, 1, 132, 28)"><g clip-path="url(#63b8e083e2)"><g clip-path="url(#4f3c928869)"><path fill="#ffffff" d="M 0.0585938 0.984375 L 308.070312 0.984375 L 308.070312 106.964844 L 0.0585938 106.964844 Z M 0.0585938 0.984375 " fill-opacity="1" fill-rule="nonzero"/></g></g></g></g><g clip-path="url(#1d65a43808)"><g transform="matrix(1, 0, 0, 1, 7, 250)"><g clip-path="url(#16de0e297c)"><g clip-path="url(#843e65dd46)"><path fill="#ffffff" d="M 0.820312 0.859375 L 752.765625 0.859375 L 752.765625 247.019531 L 0.820312 247.019531 Z M 0.820312 0.859375 " fill-opacity="1" fill-rule="nonzero"/></g></g></g></g><g fill="#1d5366" fill-opacity="1"><g transform="translate(137.738479, 358.108303)"><g><path d="M 44.734375 -47.15625 C 44.304688 -47.582031 43.535156 -48.15625 42.421875 -48.875 C 41.316406 -49.59375 39.96875 -50.28125 38.375 -50.9375 C 36.789062 -51.601562 35.066406 -52.1875 33.203125 -52.6875 C 31.347656 -53.195312 29.460938 -53.453125 27.546875 -53.453125 C 24.179688 -53.453125 21.644531 -52.820312 19.9375 -51.5625 C 18.226562 -50.3125 17.375 -48.546875 17.375 -46.265625 C 17.375 -44.523438 17.910156 -43.144531 18.984375 -42.125 C 20.066406 -41.101562 21.6875 -40.234375 23.84375 -39.515625 C 26.007812 -38.796875 28.710938 -38.015625 31.953125 -37.171875 C 36.148438 -36.148438 39.789062 -34.90625 42.875 -33.4375 C 45.96875 -31.96875 48.335938 -30.046875 49.984375 -27.671875 C 51.640625 -25.304688 52.46875 -22.171875 52.46875 -18.265625 C 52.46875 -14.847656 51.835938 -11.921875 50.578125 -9.484375 C 49.316406 -7.054688 47.578125 -5.09375 45.359375 -3.59375 C 43.140625 -2.09375 40.617188 -1 37.796875 -0.3125 C 34.972656 0.375 31.972656 0.71875 28.796875 0.71875 C 25.617188 0.71875 22.4375 0.390625 19.25 -0.265625 C 16.070312 -0.929688 13.015625 -1.878906 10.078125 -3.109375 C 7.140625 -4.335938 4.441406 -5.820312 1.984375 -7.5625 L 7.46875 -18.265625 C 8.007812 -17.722656 8.96875 -17.015625 10.34375 -16.140625 C 11.726562 -15.273438 13.410156 -14.40625 15.390625 -13.53125 C 17.367188 -12.664062 19.523438 -11.929688 21.859375 -11.328125 C 24.203125 -10.734375 26.578125 -10.4375 28.984375 -10.4375 C 32.335938 -10.4375 34.882812 -11.003906 36.625 -12.140625 C 38.363281 -13.285156 39.234375 -14.910156 39.234375 -17.015625 C 39.234375 -18.929688 38.539062 -20.425781 37.15625 -21.5 C 35.78125 -22.582031 33.863281 -23.53125 31.40625 -24.34375 C 28.945312 -25.15625 26.039062 -26.039062 22.6875 -27 C 18.664062 -28.132812 15.300781 -29.40625 12.59375 -30.8125 C 9.894531 -32.226562 7.882812 -34.015625 6.5625 -36.171875 C 5.25 -38.335938 4.59375 -41.039062 4.59375 -44.28125 C 4.59375 -48.65625 5.625 -52.328125 7.6875 -55.296875 C 9.757812 -58.273438 12.566406 -60.523438 16.109375 -62.046875 C 19.648438 -63.578125 23.582031 -64.34375 27.90625 -64.34375 C 30.90625 -64.34375 33.738281 -64.015625 36.40625 -63.359375 C 39.070312 -62.703125 41.578125 -61.832031 43.921875 -60.75 C 46.265625 -59.664062 48.363281 -58.492188 50.21875 -57.234375 Z M 44.734375 -47.15625 "/></g></g></g><g fill="#1d5366" fill-opacity="1"><g transform="translate(199.381023, 358.108303)"><g><path d="M 58.765625 0 L 58.765625 -41.9375 L 42.390625 -10.703125 L 35.453125 -10.703125 L 19.078125 -41.9375 L 19.078125 0 L 6.65625 0 L 6.65625 -63.90625 L 19.984375 -63.90625 L 38.875 -27.546875 L 57.953125 -63.90625 L 71.1875 -63.90625 L 71.1875 0 Z M 58.765625 0 "/></g></g></g><g fill="#1d5366" fill-opacity="1"><g transform="translate(283.700618, 358.108303)"><g/></g></g><g fill="#1d5366" fill-opacity="1"><g transform="translate(308.627794, 358.108303)"><g><path d="M 28.53125 -63.71875 L 40.046875 -63.71875 L 47.34375 -42.5625 L 54.71875 -63.71875 L 66.15625 -63.71875 L 55.171875 -34.65625 L 63.265625 -14.3125 L 81.359375 -63.90625 L 94.859375 -63.90625 L 69.296875 0 L 58.59375 0 L 47.34375 -26.8125 L 36.1875 0 L 25.46875 0 L 0 -63.90625 L 13.3125 -63.90625 L 31.5 -14.3125 L 39.421875 -34.65625 Z M 28.53125 -63.71875 "/></g></g></g><g fill="#1d5366" fill-opacity="1"><g transform="translate(409.865189, 358.108303)"><g><path d="M 51.03125 -10.890625 L 51.03125 0 L 6.65625 0 L 6.65625 -63.90625 L 50.21875 -63.90625 L 50.21875 -53.015625 L 19.078125 -53.015625 L 19.078125 -37.625 L 45.984375 -37.625 L 45.984375 -27.546875 L 19.078125 -27.546875 L 19.078125 -10.890625 Z M 51.03125 -10.890625 "/></g></g></g><g fill="#1d5366" fill-opacity="1"><g transform="translate(470.427869, 358.108303)"><g><path d="M 58.140625 -16.46875 C 58.140625 -12.863281 57.207031 -9.847656 55.34375 -7.421875 C 53.488281 -4.992188 50.984375 -3.148438 47.828125 -1.890625 C 44.679688 -0.628906 41.25 0 37.53125 0 L 6.65625 0 L 6.65625 -63.90625 L 40.859375 -63.90625 C 43.859375 -63.90625 46.453125 -63.109375 48.640625 -61.515625 C 50.835938 -59.921875 52.519531 -57.878906 53.6875 -55.390625 C 54.851562 -52.898438 55.4375 -50.304688 55.4375 -47.609375 C 55.4375 -44.546875 54.65625 -41.632812 53.09375 -38.875 C 51.539062 -36.113281 49.265625 -34.078125 46.265625 -32.765625 C 49.921875 -31.679688 52.8125 -29.726562 54.9375 -26.90625 C 57.070312 -24.09375 58.140625 -20.613281 58.140625 -16.46875 Z M 45.625 -18.8125 C 45.625 -20.425781 45.296875 -21.878906 44.640625 -23.171875 C 43.984375 -24.460938 43.097656 -25.484375 41.984375 -26.234375 C 40.867188 -26.984375 39.59375 -27.359375 38.15625 -27.359375 L 19.078125 -27.359375 L 19.078125 -10.53125 L 37.53125 -10.53125 C 39.03125 -10.53125 40.394531 -10.90625 41.625 -11.65625 C 42.851562 -12.40625 43.828125 -13.410156 44.546875 -14.671875 C 45.265625 -15.929688 45.625 -17.3125 45.625 -18.8125 Z M 19.078125 -53.28125 L 19.078125 -37.171875 L 35.640625 -37.171875 C 37.015625 -37.171875 38.269531 -37.5 39.40625 -38.15625 C 40.550781 -38.820312 41.46875 -39.753906 42.15625 -40.953125 C 42.851562 -42.148438 43.203125 -43.585938 43.203125 -45.265625 C 43.203125 -46.890625 42.882812 -48.300781 42.25 -49.5 C 41.625 -50.695312 40.785156 -51.625 39.734375 -52.28125 C 38.679688 -52.945312 37.5 -53.28125 36.1875 -53.28125 Z M 19.078125 -53.28125 "/></g></g></g><g fill="#1d5366" fill-opacity="1"><g transform="translate(538.099619, 358.108303)"><g/></g></g><g fill="#1d5366" fill-opacity="1"><g transform="translate(566.176552, 358.108303)"><g><path d="M 48.234375 0 L 18.1875 -31.859375 C 15.664062 -34.554688 13.640625 -36.878906 12.109375 -38.828125 C 10.578125 -40.785156 9.476562 -42.570312 8.8125 -44.1875 C 8.15625 -45.8125 7.828125 -47.550781 7.828125 -49.40625 C 7.828125 -52.46875 8.59375 -55.15625 10.125 -57.46875 C 11.65625 -59.78125 13.753906 -61.5625 16.421875 -62.8125 C 19.097656 -64.070312 22.082031 -64.703125 25.375 -64.703125 C 28.375 -64.703125 31.148438 -64.175781 33.703125 -63.125 C 36.253906 -62.082031 38.335938 -60.507812 39.953125 -58.40625 C 41.578125 -56.3125 42.390625 -53.703125 42.390625 -50.578125 C 42.390625 -47.753906 41.679688 -45.203125 40.265625 -42.921875 C 38.859375 -40.648438 36.984375 -38.550781 34.640625 -36.625 C 32.304688 -34.707031 29.671875 -32.847656 26.734375 -31.046875 C 24.566406 -29.671875 22.597656 -28.320312 20.828125 -27 C 19.066406 -25.675781 17.6875 -24.28125 16.6875 -22.8125 C 15.695312 -21.34375 15.203125 -19.738281 15.203125 -18 C 15.203125 -16.320312 15.679688 -14.757812 16.640625 -13.3125 C 17.609375 -11.875 18.945312 -10.71875 20.65625 -9.84375 C 22.363281 -8.976562 24.269531 -8.546875 26.375 -8.546875 C 28.945312 -8.546875 31.445312 -9.175781 33.875 -10.4375 C 36.3125 -11.695312 38.488281 -13.484375 40.40625 -15.796875 C 42.332031 -18.109375 43.847656 -20.882812 44.953125 -24.125 C 46.066406 -27.363281 46.625 -30.992188 46.625 -35.015625 L 56.4375 -35.015625 C 56.4375 -29.304688 55.5625 -24.25 53.8125 -19.84375 C 52.070312 -15.4375 49.734375 -11.6875 46.796875 -8.59375 C 43.859375 -5.5 40.53125 -3.140625 36.8125 -1.515625 C 33.09375 0.0976562 29.222656 0.90625 25.203125 0.90625 C 20.816406 0.90625 17.003906 0.0195312 13.765625 -1.75 C 10.523438 -3.519531 8.019531 -5.84375 6.25 -8.71875 C 4.476562 -11.601562 3.59375 -14.726562 3.59375 -18.09375 C 3.59375 -21.445312 4.375 -24.382812 5.9375 -26.90625 C 7.5 -29.425781 9.476562 -31.660156 11.875 -33.609375 C 14.28125 -35.566406 16.679688 -37.296875 19.078125 -38.796875 C 21.722656 -40.472656 23.941406 -41.894531 25.734375 -43.0625 C 27.535156 -44.226562 28.914062 -45.394531 29.875 -46.5625 C 30.832031 -47.738281 31.3125 -49.019531 31.3125 -50.40625 C 31.3125 -52.019531 30.753906 -53.320312 29.640625 -54.3125 C 28.535156 -55.300781 27.113281 -55.796875 25.375 -55.796875 C 24.0625 -55.796875 22.910156 -55.523438 21.921875 -54.984375 C 20.929688 -54.453125 20.164062 -53.734375 19.625 -52.828125 C 19.082031 -51.929688 18.8125 -50.910156 18.8125 -49.765625 C 18.8125 -48.929688 19.066406 -48.09375 19.578125 -47.25 C 20.085938 -46.40625 20.984375 -45.304688 22.265625 -43.953125 C 23.554688 -42.609375 25.34375 -40.707031 27.625 -38.25 L 64.078125 0 Z M 48.234375 0 "/></g></g></g><g fill="#1d5366" fill-opacity="1"><g transform="translate(222.465037, 451.108298)"><g><path d="M 24.03125 -63.90625 L 36.625 -63.90625 L 60.125 0 L 47.34375 0 L 41.40625 -15.9375 L 19.078125 -15.9375 L 13.234375 0 L 0.453125 0 Z M 39.15625 -24.65625 L 30.328125 -51.03125 L 21.15625 -24.65625 Z M 39.15625 -24.65625 "/></g></g></g><g fill="#1d5366" fill-opacity="1"><g transform="translate(289.416896, 451.108298)"><g><path d="M 6.65625 0 L 6.65625 -63.90625 L 29.875 -63.90625 C 36.832031 -63.90625 42.648438 -62.476562 47.328125 -59.625 C 52.015625 -56.769531 55.523438 -52.925781 57.859375 -48.09375 C 60.203125 -43.269531 61.375 -37.921875 61.375 -32.046875 C 61.375 -25.554688 60.082031 -19.910156 57.5 -15.109375 C 54.925781 -10.316406 51.285156 -6.597656 46.578125 -3.953125 C 41.867188 -1.316406 36.300781 0 29.875 0 Z M 48.875 -32.046875 C 48.875 -36.179688 48.125 -39.820312 46.625 -42.96875 C 45.125 -46.125 42.960938 -48.585938 40.140625 -50.359375 C 37.316406 -52.128906 33.894531 -53.015625 29.875 -53.015625 L 19.078125 -53.015625 L 19.078125 -10.890625 L 29.875 -10.890625 C 33.957031 -10.890625 37.40625 -11.800781 40.21875 -13.625 C 43.039062 -15.457031 45.1875 -17.976562 46.65625 -21.1875 C 48.132812 -24.40625 48.875 -28.023438 48.875 -32.046875 Z M 48.875 -32.046875 "/></g></g></g><g fill="#1d5366" fill-opacity="1"><g transform="translate(360.328239, 451.108298)"><g><path d="M 58.765625 0 L 58.765625 -41.9375 L 42.390625 -10.703125 L 35.453125 -10.703125 L 19.078125 -41.9375 L 19.078125 0 L 6.65625 0 L 6.65625 -63.90625 L 19.984375 -63.90625 L 38.875 -27.546875 L 57.953125 -63.90625 L 71.1875 -63.90625 L 71.1875 0 Z M 58.765625 0 "/></g></g></g><g fill="#1d5366" fill-opacity="1"><g transform="translate(444.647834, 451.108298)"><g><path d="M 6.65625 0 L 6.65625 -63.90625 L 19.078125 -63.90625 L 19.078125 0 Z M 6.65625 0 "/></g></g></g><g fill="#1d5366" fill-opacity="1"><g transform="translate(476.86421, 451.108298)"><g><path d="M 19.078125 -41.046875 L 19.078125 0 L 6.65625 0 L 6.65625 -63.90625 L 16.5625 -63.90625 L 49.59375 -21.78125 L 49.59375 -63.8125 L 62.015625 -63.8125 L 62.015625 0 L 51.65625 0 Z M 19.078125 -41.046875 "/></g></g></g><path stroke-linecap="butt" transform="matrix(0.75, 0.000000000000000119, -0.000000000000000119, 0.75, 114.971541, 264.375242)" fill="none" stroke-linejoin="miter" d="M 0.00148659 9.499678 L 715.027564 9.499678 " stroke="#1d5366" stroke-width="19" stroke-opacity="1" stroke-miterlimit="4"/><path stroke-linecap="butt" transform="matrix(0.75, 0, 0, 0.75, 114.971541, 468.331773)" fill="none" stroke-linejoin="miter" d="M 0.00148659 9.500345 L 715.027564 9.500345 " stroke="#4ba28a" stroke-width="19" stroke-opacity="1" stroke-miterlimit="4"/></svg>