<svg xmlns="http://www.w3.org/2000/svg" xmlns:xlink="http://www.w3.org/1999/xlink" width="1000" zoomAndPan="magnify" viewBox="0 -750 1500 1500" height="1000" preserveAspectRatio="xMidYMid meet" version="1.0"><defs><g/><clipPath id="19565ad4c4"><rect x="0" width="610" y="0" height="107"/></clipPath><clipPath id="5e944f1014"><rect x="0" width="904" y="0" height="313"/></clipPath></defs><rect x="-150" width="1800" fill="#ffffff" y="-750" height="1500" fill-opacity="1"/><rect x="-150" width="1800" fill="#ffffff" y="-750" height="1500" fill-opacity="1"/><g transform="matrix(1, 0, 0, 1, 747, 490)"><g clip-path="url(#19565ad4c4)"><g fill="#e07d2e" fill-opacity="1"><g transform="translate(0.913186, 85.780823)"><g><path d="M 41.5625 -2.28125 C 37.226562 -0.164062 32.007812 0.890625 25.90625 0.890625 C 19.664062 0.890625 14.847656 -0.945312 11.453125 -4.625 C 8.054688 -8.3125 6.359375 -13.523438 6.359375 -20.265625 C 6.359375 -23.722656 6.867188 -26.71875 7.890625 -29.25 C 8.921875 -31.789062 10.804688 -34.414062 13.546875 -37.125 C 9.347656 -41.300781 7.25 -45.640625 7.25 -50.140625 C 7.25 -54.703125 8.96875 -58.597656 12.40625 -61.828125 C 15.851562 -65.066406 20.46875 -66.6875 26.25 -66.6875 C 32.394531 -66.6875 37.140625 -65.332031 40.484375 -62.625 L 36.765625 -55.734375 C 33.367188 -58.566406 30.328125 -59.984375 27.640625 -59.984375 C 19.710938 -59.984375 15.75 -56.40625 15.75 -49.25 C 15.75 -45.375 17.476562 -42.09375 20.9375 -39.40625 L 37.578125 -39.40625 L 37.578125 -47.59375 L 46.078125 -50.859375 L 46.078125 -39.28125 L 57.21875 -39.28125 L 57.21875 -32.109375 L 46.078125 -32.109375 L 46.078125 -17.359375 C 46.078125 -13.242188 46.628906 -10.4375 47.734375 -8.9375 C 48.835938 -7.445312 50.742188 -6.703125 53.453125 -6.703125 C 55.066406 -6.703125 56.960938 -7.253906 59.140625 -8.359375 L 60.34375 -0.453125 C 57.207031 0.441406 53.628906 0.890625 49.609375 0.890625 C 46.835938 0.890625 44.15625 -0.164062 41.5625 -2.28125 Z M 37.578125 -14.046875 L 37.578125 -32.109375 L 19.546875 -32.109375 C 16.710938 -28.472656 15.296875 -24.660156 15.296875 -20.671875 C 15.296875 -11.359375 19.84375 -6.703125 28.9375 -6.703125 C 33 -6.703125 36.039062 -7.4375 38.0625 -8.90625 C 37.738281 -10.269531 37.578125 -11.984375 37.578125 -14.046875 Z M 37.578125 -14.046875 "/></g></g></g><g fill="#e07d2e" fill-opacity="1"><g transform="translate(102.231955, 85.780823)"><g/></g></g><g fill="#e07d2e" fill-opacity="1"><g transform="translate(166.473438, 85.780823)"><g><path d="M 43.921875 0 L 39.40625 -13.828125 L 15.03125 -13.828125 L 10.203125 0 L 0.171875 0 L 26.796875 -66.421875 L 29.171875 -66.421875 L 53.859375 0 Z M 27.546875 -49.25 L 17.40625 -20.390625 L 36.859375 -20.390625 Z M 27.546875 -49.25 "/></g></g></g><g fill="#e07d2e" fill-opacity="1"><g transform="translate(257.147583, 85.780823)"><g><path d="M 19.90625 0 L 6.703125 0 L 6.703125 -65.53125 C 15.117188 -65.832031 20.503906 -65.984375 22.859375 -65.984375 C 32.015625 -65.984375 39.257812 -63.203125 44.59375 -57.640625 C 49.9375 -52.078125 52.609375 -44.671875 52.609375 -35.421875 C 52.609375 -11.804688 41.707031 0 19.90625 0 Z M 15.65625 -57.484375 L 15.65625 -8.5 C 17.65625 -8.195312 20.128906 -8.046875 23.078125 -8.046875 C 29.335938 -8.046875 34.253906 -10.394531 37.828125 -15.09375 C 41.410156 -19.789062 43.203125 -26.316406 43.203125 -34.671875 C 43.203125 -50.171875 36.242188 -57.921875 22.328125 -57.921875 C 21.484375 -57.921875 19.257812 -57.773438 15.65625 -57.484375 Z M 15.65625 -57.484375 "/></g></g></g><g fill="#e07d2e" fill-opacity="1"><g transform="translate(349.968557, 85.780823)"><g><path d="M 56.046875 0 L 48.265625 -42.09375 L 33.953125 0.890625 L 31.71875 0.890625 L 17 -42.09375 L 9.390625 0 L 0.890625 0 L 13.15625 -65.53125 L 17.21875 -65.53125 L 32.828125 -17.71875 L 47.234375 -65.53125 L 51.265625 -65.53125 L 64.546875 0 Z M 56.046875 0 "/></g></g></g><g fill="#e07d2e" fill-opacity="1"><g transform="translate(451.600403, 85.780823)"><g><path d="M 8.28125 0 L 8.28125 -65.53125 L 17.21875 -65.53125 L 17.21875 0 Z M 8.28125 0 "/></g></g></g><g fill="#e07d2e" fill-opacity="1"><g transform="translate(513.739783, 85.780823)"><g><path d="M 49.0625 0.890625 L 15.203125 -47.015625 L 15.203125 0 L 6.703125 0 L 6.703125 -65.53125 L 10.28125 -65.53125 L 43.25 -20.21875 L 43.25 -65.53125 L 51.75 -65.53125 L 51.75 0.890625 Z M 49.0625 0.890625 "/></g></g></g></g></g><g transform="matrix(1, 0, 0, 1, 280, 191)"><g clip-path="url(#5e944f1014)"><g fill="#0f1419" fill-opacity="1"><g transform="translate(0.539179, 252.044685)"><g><path d="M 10.46875 -10.609375 L 23.046875 -41.109375 C 36.484375 -31.679688 49.707031 -26.96875 62.71875 -26.96875 C 82.707031 -26.96875 92.703125 -33.953125 92.703125 -47.921875 C 92.703125 -54.472656 90.34375 -60.710938 85.625 -66.640625 C 80.914062 -72.578125 71.207031 -79.234375 56.5 -86.609375 C 41.789062 -93.984375 31.878906 -100.050781 26.765625 -104.8125 C 21.660156 -109.570312 17.734375 -115.222656 14.984375 -121.765625 C 12.242188 -128.316406 10.875 -135.5625 10.875 -143.5 C 10.875 -158.34375 16.304688 -170.648438 27.171875 -180.421875 C 38.035156 -190.203125 51.976562 -195.09375 69 -195.09375 C 91.175781 -195.09375 107.457031 -190.945312 117.84375 -182.65625 L 107.5 -153.328125 C 95.539062 -161.878906 82.925781 -166.15625 69.65625 -166.15625 C 61.800781 -166.15625 55.710938 -164.082031 51.390625 -159.9375 C 47.066406 -155.789062 44.90625 -150.398438 44.90625 -143.765625 C 44.90625 -132.765625 57.082031 -121.332031 81.4375 -109.46875 C 94.269531 -103.175781 103.523438 -97.390625 109.203125 -92.109375 C 114.878906 -86.828125 119.195312 -80.671875 122.15625 -73.640625 C 125.125 -66.617188 126.609375 -58.785156 126.609375 -50.140625 C 126.609375 -34.609375 120.476562 -21.820312 108.21875 -11.78125 C 95.957031 -1.75 79.523438 3.265625 58.921875 3.265625 C 41.023438 3.265625 24.875 -1.359375 10.46875 -10.609375 Z M 10.46875 -10.609375 "/></g></g></g><g fill="#0f1419" fill-opacity="1"><g transform="translate(126.905651, 252.044685)"><g><path d="M 198.5 0.125 L 165.5 0.125 L 145.59375 -103.3125 L 106.96875 2.625 L 94.796875 2.625 L 56.171875 -103.3125 L 35.484375 0.125 L 2.625 0.125 L 41.25 -191.828125 L 59.3125 -191.828125 L 100.828125 -62.59375 L 141.40625 -191.828125 L 159.34375 -191.828125 Z M 198.5 0.125 "/></g></g></g><g fill="#0f1419" fill-opacity="1"><g transform="translate(315.992013, 252.044685)"><g/></g></g><g fill="#0f1419" fill-opacity="1"><g transform="translate(386.054619, 252.044685)"><g><path d="M 174.28125 2.625 L 160.265625 2.625 L 118.359375 -118.359375 L 77.640625 2.625 L 63.640625 2.625 L 0.65625 -191.828125 L 36.140625 -191.828125 L 72.140625 -76.078125 L 111.03125 -191.828125 L 125.953125 -191.828125 L 164.984375 -76.078125 L 200.859375 -191.828125 L 236.34375 -191.828125 Z M 174.28125 2.625 "/></g></g></g><g fill="#0f1419" fill-opacity="1"><g transform="translate(612.327708, 252.044685)"><g><path d="M 142.84375 -60.09375 L 42.6875 -60.09375 C 43.300781 -48.925781 47.140625 -40.242188 54.203125 -34.046875 C 61.273438 -27.847656 70.789062 -24.75 82.75 -24.75 C 97.675781 -24.75 109.023438 -28.632812 116.796875 -36.40625 L 129.5 -11.390625 C 117.976562 -2.046875 100.78125 2.625 77.90625 2.625 C 56.519531 2.625 39.609375 -3.632812 27.171875 -16.15625 C 14.734375 -28.6875 8.515625 -46.171875 8.515625 -68.609375 C 8.515625 -90.691406 15.34375 -108.582031 29 -122.28125 C 42.664062 -135.988281 59.054688 -142.84375 78.171875 -142.84375 C 98.503906 -142.84375 114.820312 -136.773438 127.125 -124.640625 C 139.4375 -112.515625 145.59375 -97.066406 145.59375 -78.296875 C 145.59375 -74.285156 144.675781 -68.21875 142.84375 -60.09375 Z M 43.859375 -84.71875 L 112.734375 -84.71875 C 110.460938 -105.226562 99.113281 -115.484375 78.6875 -115.484375 C 60.007812 -115.484375 48.398438 -105.226562 43.859375 -84.71875 Z M 43.859375 -84.71875 "/></g></g></g><g fill="#0f1419" fill-opacity="1"><g transform="translate(755.716283, 252.044685)"><g><path d="M 40.859375 -7.71875 L 33.515625 2.625 L 15.0625 2.625 L 15.0625 -192.46875 L 47.796875 -200.328125 L 47.796875 -134.859375 C 56.523438 -140.179688 66.035156 -142.84375 76.328125 -142.84375 C 96.847656 -142.84375 113.390625 -136.363281 125.953125 -123.40625 C 138.523438 -110.445312 144.8125 -93.835938 144.8125 -73.578125 C 144.8125 -50.097656 138.484375 -31.523438 125.828125 -17.859375 C 113.171875 -4.203125 96.019531 2.625 74.375 2.625 C 61.363281 2.625 50.191406 -0.820312 40.859375 -7.71875 Z M 47.796875 -106.84375 L 47.796875 -33.65625 C 52.597656 -27.976562 59.097656 -25.140625 67.296875 -25.140625 C 83.097656 -25.140625 94.289062 -28.890625 100.875 -36.390625 C 107.46875 -43.898438 110.765625 -55.90625 110.765625 -72.40625 C 110.765625 -100.863281 97.148438 -115.09375 69.921875 -115.09375 C 60.234375 -115.09375 52.859375 -112.34375 47.796875 -106.84375 Z M 47.796875 -106.84375 "/></g></g></g></g></g><path stroke-linecap="butt" transform="matrix(0.75, 0, 0, 0.75, 140.745555, 174.56777)" fill="none" stroke-linejoin="miter" d="M 16.500719 160.96694 L 16.500719 16.498183 L 155.151767 16.498183 " stroke="#027b80" stroke-width="33" stroke-opacity="1" stroke-miterlimit="4"/><path stroke-linecap="butt" transform="matrix(0.75, 0, 0, 0.75, 196.209269, 502.47362)" fill="none" stroke-linejoin="miter" d="M 89.37202 -0.00128435 L 89.37202 50.326843 L 0.00222422 50.326843 " stroke="#027b80" stroke-width="11" stroke-opacity="1" stroke-miterlimit="4"/><path stroke-linecap="butt" transform="matrix(0.75, 0, 0, 0.75, 196.209269, 503.973619)" fill="none" stroke-linejoin="miter" d="M 0.00222422 10.498716 L 58.05431 10.498716 " stroke="#e07d2e" stroke-width="21" stroke-opacity="1" stroke-miterlimit="4"/><path stroke-linecap="butt" transform="matrix(0.75, 0, 0, 0.75, 571.971649, 511.848619)" fill="none" stroke-linejoin="miter" d="M 0.00134243 17.498717 L 93.376347 17.498717 " stroke="#027b80" stroke-width="35" stroke-opacity="1" stroke-miterlimit="4"/><path stroke-linecap="butt" transform="matrix(0.75, 0, 0, 0.75, 1285.460439, 226.710244)" fill="none" stroke-linejoin="miter" d="M 81.677752 69.178011 L 81.677752 8.000925 L 8.000666 8.000925 L 8.000666 0.131133 " stroke="#e07d2e" stroke-width="16" stroke-opacity="1" stroke-miterlimit="4"/></svg>