<svg xmlns="http://www.w3.org/2000/svg" xmlns:xlink="http://www.w3.org/1999/xlink" width="1024" zoomAndPan="magnify" viewBox="0 0 768 767.999994" height="1024" preserveAspectRatio="xMidYMid meet" version="1.2"><defs><clipPath id="babfd15c95"><path d="M 118.625 63.332031 L 649.160156 63.332031 L 649.160156 519.097656 L 118.625 519.097656 Z M 118.625 63.332031 "/></clipPath><clipPath id="c0cdcbcf24"><path d="M 649.160156 291.214844 L 516.574219 519.097656 L 251.40625 519.097656 L 118.820312 291.214844 L 251.40625 63.332031 L 516.574219 63.332031 Z M 649.160156 291.214844 "/></clipPath><clipPath id="1c83ec80e7"><path d="M 389 77 L 534 77 L 534 244 L 389 244 Z M 389 77 "/></clipPath><clipPath id="8a18e5606c"><path d="M 498.070312 56.933594 L 569.378906 181.242188 L 424.675781 264.253906 L 353.367188 139.941406 Z M 498.070312 56.933594 "/></clipPath><clipPath id="d54ba8ab36"><path d="M 533.726562 119.089844 L 533.21875 201.988281 L 460.890625 243.476562 L 389.074219 202.066406 L 389.582031 119.167969 L 461.90625 77.679688 Z M 533.726562 119.089844 "/></clipPath><clipPath id="8585efbcf3"><path d="M 237 78 L 382 78 L 382 245 L 237 245 Z M 237 78 "/></clipPath><clipPath id="57da860afb"><path d="M 346.226562 57.800781 L 417.535156 182.113281 L 272.832031 265.121094 L 201.523438 140.8125 Z M 346.226562 57.800781 "/></clipPath><clipPath id="d61148ef67"><path d="M 381.882812 119.957031 L 381.375 202.855469 L 309.050781 244.34375 L 237.230469 202.933594 L 237.738281 120.035156 L 310.066406 78.546875 Z M 381.882812 119.957031 "/></clipPath><clipPath id="e57c33b996"><path d="M 311 208 L 457 208 L 457 375 L 311 375 Z M 311 208 "/></clipPath><clipPath id="db0f0229f6"><path d="M 420.667969 187.570312 L 491.976562 311.878906 L 347.273438 394.890625 L 275.964844 270.578125 Z M 420.667969 187.570312 "/></clipPath><clipPath id="c9b465ded4"><path d="M 456.324219 249.726562 L 455.816406 332.625 L 383.492188 374.113281 L 311.671875 332.703125 L 312.179688 249.804688 L 384.507812 208.316406 Z M 456.324219 249.726562 "/></clipPath><clipPath id="16ff6d0cdc"><path d="M 311 208 L 457 208 L 457 374 L 311 374 Z M 311 208 "/></clipPath><clipPath id="c6b887736b"><path d="M 420.667969 187.570312 L 491.949219 311.828125 L 347.523438 394.675781 L 276.246094 270.417969 Z M 420.667969 187.570312 "/></clipPath><clipPath id="29e2956d03"><path d="M 420.667969 187.570312 L 491.867188 311.6875 L 347.441406 394.535156 L 276.246094 270.421875 Z M 420.667969 187.570312 "/></clipPath><clipPath id="e6ce533850"><path d="M 456.269531 249.628906 L 455.761719 332.398438 L 383.546875 373.824219 L 311.84375 332.476562 L 312.351562 249.707031 L 384.5625 208.285156 Z M 456.269531 249.628906 "/></clipPath><clipPath id="7b1d609231"><path d="M 159 209 L 305 209 L 305 375 L 159 375 Z M 159 209 "/></clipPath><clipPath id="65f6db49df"><path d="M 268.824219 188.441406 L 340.136719 312.75 L 195.433594 395.757812 L 124.121094 271.449219 Z M 268.824219 188.441406 "/></clipPath><clipPath id="45464388eb"><path d="M 304.480469 250.59375 L 303.972656 333.492188 L 231.648438 374.980469 L 159.828125 333.570312 L 160.339844 250.671875 L 232.664062 209.183594 Z M 304.480469 250.59375 "/></clipPath><clipPath id="4d19f0acd0"><path d="M 234 338 L 379 338 L 379 505 L 234 505 Z M 234 338 "/></clipPath><clipPath id="918c7093f5"><path d="M 343.265625 318.207031 L 414.578125 442.515625 L 269.871094 525.527344 L 198.5625 401.21875 Z M 343.265625 318.207031 "/></clipPath><clipPath id="391d80edc1"><path d="M 378.921875 380.363281 L 378.414062 463.261719 L 306.089844 504.75 L 234.269531 463.339844 L 234.777344 380.441406 L 307.105469 338.953125 Z M 378.921875 380.363281 "/></clipPath><clipPath id="cfecffba25"><path d="M 386 338 L 531 338 L 531 504 L 386 504 Z M 386 338 "/></clipPath><clipPath id="69c8fa175a"><path d="M 495.109375 317.339844 L 566.417969 441.648438 L 421.714844 524.65625 L 350.40625 400.347656 Z M 495.109375 317.339844 "/></clipPath><clipPath id="f3c7dac91f"><path d="M 530.765625 379.496094 L 530.257812 462.394531 L 457.929688 503.882812 L 386.113281 462.472656 L 386.621094 379.574219 L 458.949219 338.085938 Z M 530.765625 379.496094 "/></clipPath><clipPath id="3e9995136f"><path d="M 463 207 L 609 207 L 609 374 L 463 374 Z M 463 207 "/></clipPath><clipPath id="a9b1b7fa41"><path d="M 572.511719 186.703125 L 643.820312 311.011719 L 499.117188 394.019531 L 427.808594 269.710938 Z M 572.511719 186.703125 "/></clipPath><clipPath id="00b5c58040"><path d="M 608.167969 248.859375 L 607.660156 331.757812 L 535.332031 373.246094 L 463.515625 331.835938 L 464.023438 248.9375 L 536.347656 207.449219 Z M 608.167969 248.859375 "/></clipPath><clipPath id="31f43dbf8f"><path d="M 463 207 L 609 207 L 609 373 L 463 373 Z M 463 207 "/></clipPath><clipPath id="df2e9f63c0"><path d="M 572.511719 186.703125 L 643.792969 310.960938 L 499.367188 393.808594 L 428.085938 269.550781 Z M 572.511719 186.703125 "/></clipPath><clipPath id="b35053261e"><path d="M 572.511719 186.703125 L 643.710938 310.820312 L 499.285156 393.667969 L 428.085938 269.550781 Z M 572.511719 186.703125 "/></clipPath><clipPath id="a58aa4115d"><path d="M 608.109375 248.761719 L 607.605469 331.53125 L 535.390625 372.953125 L 463.6875 331.609375 L 464.195312 248.839844 L 536.40625 207.414062 Z M 608.109375 248.761719 "/></clipPath></defs><g id="eafce137d0"><rect x="0" width="768" y="0" height="767.999994" style="fill:#ffffff;fill-opacity:1;stroke:none;"/><path style="fill:none;stroke-width:16;stroke-linecap:butt;stroke-linejoin:miter;stroke:#4ba28a;stroke-opacity:1;stroke-miterlimit:4;" d="M -0.000915965 8.000095 L 477.019962 8.000095 " transform="matrix(0.749975,-0.000000000000000744,0.000000000000000744,0.749975,205.117874,573.906376)"/><g clip-rule="nonzero" clip-path="url(#babfd15c95)"><g clip-rule="nonzero" clip-path="url(#c0cdcbcf24)"><path style=" stroke:none;fill-rule:nonzero;fill:#1d5366;fill-opacity:1;" d="M 649.160156 63.332031 L 649.160156 519.097656 L 118.625 519.097656 L 118.625 63.332031 Z M 649.160156 63.332031 "/></g></g><g clip-rule="nonzero" clip-path="url(#1c83ec80e7)"><g clip-rule="nonzero" clip-path="url(#8a18e5606c)"><g clip-rule="nonzero" clip-path="url(#d54ba8ab36)"><path style=" stroke:none;fill-rule:nonzero;fill:#e68731;fill-opacity:1;" d="M 498.070312 56.933594 L 569.378906 181.242188 L 424.675781 264.253906 L 353.367188 139.941406 Z M 498.070312 56.933594 "/></g></g></g><g clip-rule="nonzero" clip-path="url(#8585efbcf3)"><g clip-rule="nonzero" clip-path="url(#57da860afb)"><g clip-rule="nonzero" clip-path="url(#d61148ef67)"><path style=" stroke:none;fill-rule:nonzero;fill:#e68731;fill-opacity:1;" d="M 346.226562 57.800781 L 417.535156 182.113281 L 272.832031 265.121094 L 201.523438 140.8125 Z M 346.226562 57.800781 "/></g></g></g><g clip-rule="nonzero" clip-path="url(#e57c33b996)"><g clip-rule="nonzero" clip-path="url(#db0f0229f6)"><g clip-rule="nonzero" clip-path="url(#c9b465ded4)"><path style=" stroke:none;fill-rule:nonzero;fill:#e68731;fill-opacity:1;" d="M 420.667969 187.570312 L 491.976562 311.878906 L 347.273438 394.890625 L 275.964844 270.578125 Z M 420.667969 187.570312 "/></g></g></g><g clip-rule="nonzero" clip-path="url(#16ff6d0cdc)"><g clip-rule="nonzero" clip-path="url(#c6b887736b)"><g clip-rule="nonzero" clip-path="url(#29e2956d03)"><g clip-rule="nonzero" clip-path="url(#e6ce533850)"><path style="fill:none;stroke-width:20;stroke-linecap:butt;stroke-linejoin:miter;stroke:#4ba28a;stroke-opacity:1;stroke-miterlimit:4;" d="M 95.538918 -0.00189665 L 191.076946 55.584837 L 191.077027 166.760863 L 95.537152 222.343035 L -0.000875688 166.756302 L 0.000971885 55.587396 Z M 95.538918 -0.00189665 " transform="matrix(0.372614,0.649554,-0.649554,0.372614,420.669174,187.571891)"/></g></g></g></g><g clip-rule="nonzero" clip-path="url(#7b1d609231)"><g clip-rule="nonzero" clip-path="url(#65f6db49df)"><g clip-rule="nonzero" clip-path="url(#45464388eb)"><path style=" stroke:none;fill-rule:nonzero;fill:#e68731;fill-opacity:1;" d="M 268.824219 188.441406 L 340.136719 312.75 L 195.433594 395.757812 L 124.121094 271.449219 Z M 268.824219 188.441406 "/></g></g></g><g clip-rule="nonzero" clip-path="url(#4d19f0acd0)"><g clip-rule="nonzero" clip-path="url(#918c7093f5)"><g clip-rule="nonzero" clip-path="url(#391d80edc1)"><path style=" stroke:none;fill-rule:nonzero;fill:#e68731;fill-opacity:1;" d="M 343.265625 318.207031 L 414.578125 442.515625 L 269.871094 525.527344 L 198.5625 401.21875 Z M 343.265625 318.207031 "/></g></g></g><g clip-rule="nonzero" clip-path="url(#cfecffba25)"><g clip-rule="nonzero" clip-path="url(#69c8fa175a)"><g clip-rule="nonzero" clip-path="url(#f3c7dac91f)"><path style=" stroke:none;fill-rule:nonzero;fill:#e68731;fill-opacity:1;" d="M 495.109375 317.339844 L 566.417969 441.648438 L 421.714844 524.65625 L 350.40625 400.347656 Z M 495.109375 317.339844 "/></g></g></g><g clip-rule="nonzero" clip-path="url(#3e9995136f)"><g clip-rule="nonzero" clip-path="url(#a9b1b7fa41)"><g clip-rule="nonzero" clip-path="url(#00b5c58040)"><path style=" stroke:none;fill-rule:nonzero;fill:#e68731;fill-opacity:1;" d="M 572.511719 186.703125 L 643.820312 311.011719 L 499.117188 394.019531 L 427.808594 269.710938 Z M 572.511719 186.703125 "/></g></g></g><g clip-rule="nonzero" clip-path="url(#31f43dbf8f)"><g clip-rule="nonzero" clip-path="url(#df2e9f63c0)"><g clip-rule="nonzero" clip-path="url(#b35053261e)"><g clip-rule="nonzero" clip-path="url(#a58aa4115d)"><path style="fill:none;stroke-width:20;stroke-linecap:butt;stroke-linejoin:miter;stroke:#4ba28a;stroke-opacity:1;stroke-miterlimit:4;" d="M 95.537957 0.00241196 L 191.07858 55.58462 L 191.074137 166.758051 L 95.538787 222.342819 L 0.000758979 166.756085 L -0.00191822 55.584584 Z M 95.537957 0.00241196 " transform="matrix(0.372614,0.649554,-0.649554,0.372614,572.512175,186.703722)"/></g></g></g></g><g style="fill:#1d5366;fill-opacity:1;"><g transform="translate(120.036458, 690.29452)"><path style="stroke:none" d="M 23.640625 0.90625 C 19.460938 0.90625 15.421875 0.335938 11.515625 -0.796875 C 7.617188 -1.929688 4.484375 -3.40625 2.109375 -5.21875 L 6.265625 -14.421875 C 8.535156 -12.765625 11.226562 -11.429688 14.34375 -10.421875 C 17.46875 -9.410156 20.59375 -8.90625 23.71875 -8.90625 C 27.1875 -8.90625 29.75 -9.421875 31.40625 -10.453125 C 33.070312 -11.492188 33.90625 -12.867188 33.90625 -14.578125 C 33.90625 -15.835938 33.414062 -16.878906 32.4375 -17.703125 C 31.457031 -18.535156 30.195312 -19.203125 28.65625 -19.703125 C 27.125 -20.210938 25.050781 -20.769531 22.4375 -21.375 C 18.40625 -22.332031 15.101562 -23.289062 12.53125 -24.25 C 9.96875 -25.207031 7.765625 -26.742188 5.921875 -28.859375 C 4.085938 -30.972656 3.171875 -33.789062 3.171875 -37.3125 C 3.171875 -40.382812 4 -43.164062 5.65625 -45.65625 C 7.320312 -48.144531 9.828125 -50.117188 13.171875 -51.578125 C 16.523438 -53.046875 20.617188 -53.78125 25.453125 -53.78125 C 28.828125 -53.78125 32.125 -53.375 35.34375 -52.5625 C 38.570312 -51.757812 41.394531 -50.601562 43.8125 -49.09375 L 40.03125 -39.8125 C 35.144531 -42.570312 30.257812 -43.953125 25.375 -43.953125 C 21.957031 -43.953125 19.425781 -43.398438 17.78125 -42.296875 C 16.144531 -41.191406 15.328125 -39.734375 15.328125 -37.921875 C 15.328125 -36.109375 16.269531 -34.757812 18.15625 -33.875 C 20.050781 -32.988281 22.9375 -32.117188 26.8125 -31.265625 C 30.84375 -30.304688 34.140625 -29.347656 36.703125 -28.390625 C 39.273438 -27.441406 41.476562 -25.929688 43.3125 -23.859375 C 45.15625 -21.796875 46.078125 -19.003906 46.078125 -15.484375 C 46.078125 -12.460938 45.234375 -9.703125 43.546875 -7.203125 C 41.859375 -4.710938 39.328125 -2.738281 35.953125 -1.28125 C 32.578125 0.175781 28.472656 0.90625 23.640625 0.90625 Z M 23.640625 0.90625 "/></g></g><g style="fill:#1d5366;fill-opacity:1;"><g transform="translate(168.224791, 690.29452)"><path style="stroke:none" d="M 54.375 0 L 54.3125 -31.71875 L 38.75 -5.59375 L 33.234375 -5.59375 L 17.75 -31.046875 L 17.75 0 L 6.265625 0 L 6.265625 -52.875 L 16.390625 -52.875 L 36.171875 -20.015625 L 55.671875 -52.875 L 65.71875 -52.875 L 65.859375 0 Z M 54.375 0 "/></g></g><g style="fill:#1d5366;fill-opacity:1;"><g transform="translate(240.356265, 690.29452)"><path style="stroke:none" d=""/></g></g><g style="fill:#1d5366;fill-opacity:1;"><g transform="translate(261.731336, 690.29452)"><path style="stroke:none" d="M 86.1875 -52.875 L 68.890625 0 L 55.734375 0 L 44.109375 -35.796875 L 32.09375 0 L 19.03125 0 L 1.65625 -52.875 L 14.34375 -52.875 L 26.28125 -15.703125 L 38.75 -52.875 L 50.078125 -52.875 L 62.15625 -15.40625 L 74.46875 -52.875 Z M 86.1875 -52.875 "/></g></g><g style="fill:#1d5366;fill-opacity:1;"><g transform="translate(348.44012, 690.29452)"><path style="stroke:none" d="M 47.203125 -9.8125 L 47.203125 0 L 6.265625 0 L 6.265625 -52.875 L 46.21875 -52.875 L 46.21875 -43.046875 L 18.421875 -43.046875 L 18.421875 -31.578125 L 42.984375 -31.578125 L 42.984375 -22.0625 L 18.421875 -22.0625 L 18.421875 -9.8125 Z M 47.203125 -9.8125 "/></g></g><g style="fill:#1d5366;fill-opacity:1;"><g transform="translate(399.120985, 690.29452)"><path style="stroke:none" d="M 45.09375 -27.5 C 48.113281 -26.539062 50.476562 -24.941406 52.1875 -22.703125 C 53.90625 -20.460938 54.765625 -17.703125 54.765625 -14.421875 C 54.765625 -9.796875 52.960938 -6.234375 49.359375 -3.734375 C 45.753906 -1.242188 40.503906 0 33.609375 0 L 6.265625 0 L 6.265625 -52.875 L 32.09375 -52.875 C 38.539062 -52.875 43.488281 -51.640625 46.9375 -49.171875 C 50.382812 -46.703125 52.109375 -43.351562 52.109375 -39.125 C 52.109375 -36.550781 51.492188 -34.257812 50.265625 -32.25 C 49.035156 -30.238281 47.3125 -28.65625 45.09375 -27.5 Z M 18.421875 -43.65625 L 18.421875 -31.1875 L 30.59375 -31.1875 C 33.613281 -31.1875 35.90625 -31.710938 37.46875 -32.765625 C 39.03125 -33.828125 39.8125 -35.394531 39.8125 -37.46875 C 39.8125 -39.53125 39.03125 -41.078125 37.46875 -42.109375 C 35.90625 -43.140625 33.613281 -43.65625 30.59375 -43.65625 Z M 32.703125 -9.21875 C 35.921875 -9.21875 38.347656 -9.742188 39.984375 -10.796875 C 41.628906 -11.859375 42.453125 -13.492188 42.453125 -15.703125 C 42.453125 -20.085938 39.203125 -22.28125 32.703125 -22.28125 L 18.421875 -22.28125 L 18.421875 -9.21875 Z M 32.703125 -9.21875 "/></g></g><g style="fill:#1d5366;fill-opacity:1;"><g transform="translate(456.901664, 690.29452)"><path style="stroke:none" d="M 54.375 0 L 54.3125 -31.71875 L 38.75 -5.59375 L 33.234375 -5.59375 L 17.75 -31.046875 L 17.75 0 L 6.265625 0 L 6.265625 -52.875 L 16.390625 -52.875 L 36.171875 -20.015625 L 55.671875 -52.875 L 65.71875 -52.875 L 65.859375 0 Z M 54.375 0 "/></g></g><g style="fill:#1d5366;fill-opacity:1;"><g transform="translate(529.033137, 690.29452)"><path style="stroke:none" d="M 41.09375 -11.328125 L 16.546875 -11.328125 L 11.859375 0 L -0.6875 0 L 22.890625 -52.875 L 34.96875 -52.875 L 58.609375 0 L 45.765625 0 Z M 37.234375 -20.625 L 28.859375 -40.859375 L 20.46875 -20.625 Z M 37.234375 -20.625 "/></g></g><g style="fill:#1d5366;fill-opacity:1;"><g transform="translate(586.889353, 690.29452)"><path style="stroke:none" d="M 54.765625 -52.875 L 54.765625 0 L 44.71875 0 L 18.359375 -32.09375 L 18.359375 0 L 6.265625 0 L 6.265625 -52.875 L 16.390625 -52.875 L 42.671875 -20.765625 L 42.671875 -52.875 Z M 54.765625 -52.875 "/></g></g></g></svg>