<svg xmlns="http://www.w3.org/2000/svg" xmlns:xlink="http://www.w3.org/1999/xlink" viewBox="0 0 768 767.999994" preserveAspectRatio="xMidYMid meet" class="splash-logo-svg"><style>
.splash-part{opacity:0;transform:scale(0.96);animation:splashReveal 0.5s ease forwards;}
.splash-part:nth-child(1){animation-delay:0s;}
.splash-part:nth-child(2){animation-delay:0.06s;}
.splash-part:nth-child(3){animation-delay:0.12s;}
.splash-part:nth-child(4){animation-delay:0.18s;}
.splash-part:nth-child(5){animation-delay:0.24s;}
.splash-part:nth-child(6){animation-delay:0.3s;}
.splash-part:nth-child(7){animation-delay:0.36s;}
.splash-part:nth-child(8){animation-delay:0.42s;}
.splash-part:nth-child(9){animation-delay:0.48s;}
.splash-part:nth-child(10){animation-delay:0.54s;}
.splash-part:nth-child(11){animation-delay:0.6s;}
.splash-part-text{animation-delay:0.66s;}
@keyframes splashReveal{to{opacity:1;transform:scale(1);}}
</style><defs><clipPath id="splash-c1"><path d="M 217.335938 339.289062 L 410.832031 339.289062 L 410.832031 505.789062 L 217.335938 505.789062 Z M 217.335938 339.289062 "/></clipPath><clipPath id="splash-c2"><path d="M 411.109375 422.550781 L 362.667969 505.8125 L 265.78125 505.8125 L 217.335938 422.550781 L 265.78125 339.289062 L 362.667969 339.289062 Z M 411.109375 422.550781 "/></clipPath><clipPath id="splash-c3"><path d="M 353.597656 262.179688 L 547.09375 262.179688 L 547.09375 428.679688 L 353.597656 428.679688 Z M 353.597656 262.179688 "/></clipPath><clipPath id="splash-c4"><path d="M 547.371094 345.441406 L 498.925781 428.703125 L 402.039062 428.703125 L 353.597656 345.441406 L 402.039062 262.179688 L 498.925781 262.179688 Z M 547.371094 345.441406 "/></clipPath><clipPath id="splash-c5"><path d="M 352.847656 417.148438 L 546.34375 417.148438 L 546.34375 583.648438 L 352.847656 583.648438 Z M 352.847656 417.148438 "/></clipPath><clipPath id="splash-c6"><path d="M 546.621094 500.410156 L 498.175781 583.671875 L 401.289062 583.671875 L 352.847656 500.410156 L 401.289062 417.148438 L 498.175781 417.148438 Z M 546.621094 500.410156 "/></clipPath><clipPath id="splash-c7"><path d="M 345.113281 540.222656 L 558.390625 540.222656 L 558.390625 609.84375 L 345.113281 609.84375 Z M 345.113281 540.222656 "/></clipPath><clipPath id="splash-c8"><path d="M 0.113281 0.222656 L 213.390625 0.222656 L 213.390625 69.84375 L 0.113281 69.84375 Z M 0.113281 0.222656 "/></clipPath><clipPath id="splash-c9"><rect x="0" width="214" y="0" height="70"/></clipPath><clipPath id="splash-c10"><path d="M 218.085938 185.214844 L 411.582031 185.214844 L 411.582031 351.714844 L 218.085938 351.714844 Z M 218.085938 185.214844 "/></clipPath><clipPath id="splash-c11"><path d="M 411.859375 268.476562 L 363.417969 351.738281 L 266.53125 351.738281 L 218.085938 268.476562 L 266.53125 185.214844 L 363.417969 185.214844 Z M 411.859375 268.476562 "/></clipPath><clipPath id="splash-c12"><path d="M 217.332031 157.308594 L 419.695312 157.308594 L 419.695312 226.929688 L 217.332031 226.929688 Z M 217.332031 157.308594 "/></clipPath><clipPath id="splash-c13"><path d="M 0.332031 0.308594 L 202.695312 0.308594 L 202.695312 69.929688 L 0.332031 69.929688 Z M 0.332031 0.308594 "/></clipPath><clipPath id="splash-c14"><rect x="0" width="203" y="0" height="70"/></clipPath><clipPath id="splash-c15"><path d="M 122.695312 309.554688 L 645.304688 309.554688 L 645.304688 456.097656 L 122.695312 456.097656 Z M 122.695312 309.554688 "/></clipPath><clipPath id="splash-c16"><path d="M 0.695312 0.554688 L 523.304688 0.554688 L 523.304688 147.097656 L 0.695312 147.097656 Z M 0.695312 0.554688 "/></clipPath><clipPath id="splash-c17"><rect x="0" width="524" y="0" height="148"/></clipPath></defs><g class="splash-logo-main"><rect x="0" width="768" y="0" height="767.999994" style="fill:#ffffff;stroke:none;" class="splash-part"/><g clip-rule="nonzero" clip-path="url(#splash-c1)" class="splash-part"><g clip-rule="nonzero" clip-path="url(#splash-c2)"><path style="fill:none;stroke-width:30;stroke-linecap:butt;stroke-linejoin:miter;stroke:#e68731;stroke-opacity:1;stroke-miterlimit:4;" d="M 258.36336 111.014943 L 193.774819 222.030566 L 64.592529 222.030566 L -0.00121966 111.014943 L 64.592529 -0.000680416 L 193.774819 -0.000680416 Z M 258.36336 111.014943 " transform="matrix(0.75,0,0,0.75,217.336852,339.289573)"/></g></g><g clip-rule="nonzero" clip-path="url(#splash-c3)" class="splash-part"><g clip-rule="nonzero" clip-path="url(#splash-c4)"><path style="fill:none;stroke-width:30;stroke-linecap:butt;stroke-linejoin:miter;stroke:#e68731;stroke-opacity:1;stroke-miterlimit:4;" d="M 258.364665 111.016579 L 193.770916 222.032202 L 64.588627 222.032202 L 0.0000857943 111.016579 L 64.588627 0.000955297 L 193.770916 0.000955297 Z M 258.364665 111.016579 " transform="matrix(0.75,0,0,0.75,353.597592,262.178971)"/></g></g><g clip-rule="nonzero" clip-path="url(#splash-c5)" class="splash-part"><g clip-rule="nonzero" clip-path="url(#splash-c6)"><path style="fill:none;stroke-width:30;stroke-linecap:butt;stroke-linejoin:miter;stroke:#1d5366;stroke-opacity:1;stroke-miterlimit:4;" d="M 258.364665 111.013253 L 193.770916 222.028876 L 64.588626 222.028876 L 0.0000857448 111.013253 L 64.588626 -0.00237048 L 193.770916 -0.00237048 Z M 258.364665 111.013253 " transform="matrix(0.75,0,0,0.75,352.847592,417.150215)"/></g></g><g clip-rule="nonzero" clip-path="url(#splash-c7)" class="splash-part"><g transform="matrix(1,0,0,1,345,540)"><g clip-path="url(#splash-c9)"><g clip-rule="nonzero" clip-path="url(#splash-c8)"><path style="stroke:none;fill-rule:nonzero;fill:#ffffff;fill-opacity:1;" d="M 0.113281 0.222656 L 213.328125 0.222656 L 213.328125 69.84375 L 0.113281 69.84375 Z M 0.113281 0.222656 "/></g></g></g></g><g clip-rule="nonzero" clip-path="url(#splash-c10)" class="splash-part"><g clip-rule="nonzero" clip-path="url(#splash-c11)"><path style="fill:none;stroke-width:30;stroke-linecap:butt;stroke-linejoin:miter;stroke:#4ba28a;stroke-opacity:1;stroke-miterlimit:4;" d="M 258.36336 111.017502 L 193.774819 222.033125 L 64.592529 222.033125 L -0.00121961 111.017502 L 64.592529 0.00187855 L 193.774819 0.00187855 Z M 258.36336 111.017502 " transform="matrix(0.75,0,0,0.75,218.086852,185.213435)"/></g></g><g clip-rule="nonzero" clip-path="url(#splash-c12)" class="splash-part"><g transform="matrix(1,0,0,1,217,157)"><g clip-path="url(#splash-c14)"><g clip-rule="nonzero" clip-path="url(#splash-c13)"><path style="stroke:none;fill-rule:nonzero;fill:#ffffff;fill-opacity:1;" d="M 0.332031 0.308594 L 202.667969 0.308594 L 202.667969 69.929688 L 0.332031 69.929688 Z M 0.332031 0.308594 "/></g></g></g></g><g clip-rule="nonzero" clip-path="url(#splash-c15)" class="splash-part"><g transform="matrix(1,0,0,1,122,309)"><g clip-path="url(#splash-c17)"><g clip-rule="nonzero" clip-path="url(#splash-c16)"><path style="stroke:none;fill-rule:nonzero;fill:#ffffff;fill-opacity:1;" d="M 0.695312 0.554688 L 523.335938 0.554688 L 523.335938 147.097656 L 0.695312 147.097656 Z M 0.695312 0.554688 "/></g></g></g></g><g style="fill:#1d5366;fill-opacity:1;" class="splash-part splash-part-text"><g transform="translate(132.432777, 407.803037)"><path style="stroke:none" d="M 22.53125 0.859375 C 18.550781 0.859375 14.703125 0.320312 10.984375 -0.75 C 7.265625 -1.832031 4.273438 -3.238281 2.015625 -4.96875 L 5.96875 -13.75 C 8.132812 -12.164062 10.703125 -10.894531 13.671875 -9.9375 C 16.648438 -8.976562 19.628906 -8.5 22.609375 -8.5 C 25.921875 -8.5 28.367188 -8.988281 29.953125 -9.96875 C 31.535156 -10.957031 32.328125 -12.265625 32.328125 -13.890625 C 32.328125 -15.097656 31.859375 -16.097656 30.921875 -16.890625 C 29.984375 -17.679688 28.78125 -18.316406 27.3125 -18.796875 C 25.851562 -19.273438 23.878906 -19.800781 21.390625 -20.375 C 17.546875 -21.289062 14.398438 -22.203125 11.953125 -23.109375 C 9.503906 -24.023438 7.40625 -25.488281 5.65625 -27.5 C 3.90625 -29.519531 3.03125 -32.207031 3.03125 -35.5625 C 3.03125 -38.488281 3.820312 -41.140625 5.40625 -43.515625 C 6.988281 -45.898438 9.375 -47.785156 12.5625 -49.171875 C 15.757812 -50.566406 19.660156 -51.265625 24.265625 -51.265625 C 27.484375 -51.265625 30.625 -50.878906 33.6875 -50.109375 C 36.757812 -49.335938 39.453125 -48.234375 41.765625 -46.796875 L 38.15625 -37.9375 C 33.5 -40.582031 28.84375 -41.90625 24.1875 -41.90625 C 20.925781 -41.90625 18.515625 -41.375 16.953125 -40.3125 C 15.390625 -39.257812 14.609375 -37.867188 14.609375 -36.140625 C 14.609375 -34.410156 15.507812 -33.125 17.3125 -32.28125 C 19.113281 -31.445312 21.863281 -30.625 25.5625 -29.8125 C 29.394531 -28.894531 32.535156 -27.976562 34.984375 -27.0625 C 37.429688 -26.15625 39.53125 -24.71875 41.28125 -22.75 C 43.039062 -20.78125 43.921875 -18.117188 43.921875 -14.765625 C 43.921875 -11.878906 43.113281 -9.25 41.5 -6.875 C 39.894531 -4.5 37.484375 -2.613281 34.265625 -1.21875 C 31.054688 0.164062 27.144531 0.859375 22.53125 0.859375 Z M 22.53125 0.859375 "/></g></g><g style="fill:#1d5366;fill-opacity:1;"><g transform="translate(178.361337, 407.803037)"><path style="stroke:none" d="M 51.84375 0 L 51.765625 -30.234375 L 36.9375 -5.328125 L 31.6875 -5.328125 L 16.921875 -29.59375 L 16.921875 0 L 5.96875 0 L 5.96875 -50.40625 L 15.625 -50.40625 L 34.484375 -19.078125 L 53.0625 -50.40625 L 62.640625 -50.40625 L 62.78125 0 Z M 51.84375 0 "/></g></g><g style="fill:#1d5366;fill-opacity:1;"><g transform="translate(247.110204, 407.803037)"><path style="stroke:none" d=""/></g></g><g style="fill:#1d5366;fill-opacity:1;"><g transform="translate(267.482907, 407.803037)"><path style="stroke:none" d="M 82.15625 -50.40625 L 65.65625 0 L 53.140625 0 L 42.046875 -34.125 L 30.59375 0 L 18.140625 0 L 1.578125 -50.40625 L 13.6875 -50.40625 L 25.0625 -14.96875 L 36.9375 -50.40625 L 47.734375 -50.40625 L 59.25 -14.6875 L 70.984375 -50.40625 Z M 82.15625 -50.40625 "/></g></g><g style="fill:#1d5366;fill-opacity:1;"><g transform="translate(350.125462, 407.803037)"><path style="stroke:none" d="M 45 -9.359375 L 45 0 L 5.96875 0 L 5.96875 -50.40625 L 44.0625 -50.40625 L 44.0625 -41.046875 L 17.5625 -41.046875 L 17.5625 -30.09375 L 40.96875 -30.09375 L 40.96875 -21.03125 L 17.5625 -21.03125 L 17.5625 -9.359375 Z M 45 -9.359375 "/></g></g><g style="fill:#1d5366;fill-opacity:1;"><g transform="translate(398.429644, 407.803037)"><path style="stroke:none" d="M 42.984375 -26.203125 C 45.859375 -25.296875 48.113281 -23.773438 49.75 -21.640625 C 51.382812 -19.503906 52.203125 -16.875 52.203125 -13.75 C 52.203125 -9.332031 50.484375 -5.9375 47.046875 -3.5625 C 43.617188 -1.1875 38.617188 0 32.046875 0 L 5.96875 0 L 5.96875 -50.40625 L 30.59375 -50.40625 C 36.738281 -50.40625 41.457031 -49.226562 44.75 -46.875 C 48.039062 -44.519531 49.6875 -41.328125 49.6875 -37.296875 C 49.6875 -34.847656 49.097656 -32.660156 47.921875 -30.734375 C 46.742188 -28.816406 45.097656 -27.304688 42.984375 -26.203125 Z M 17.5625 -41.609375 L 17.5625 -29.734375 L 29.15625 -29.734375 C 32.039062 -29.734375 34.222656 -30.238281 35.703125 -31.25 C 37.191406 -32.257812 37.9375 -33.75 37.9375 -35.71875 C 37.9375 -37.675781 37.191406 -39.144531 35.703125 -40.125 C 34.222656 -41.113281 32.039062 -41.609375 29.15625 -41.609375 Z M 31.171875 -8.78125 C 34.242188 -8.78125 36.5625 -9.285156 38.125 -10.296875 C 39.6875 -11.304688 40.46875 -12.863281 40.46875 -14.96875 C 40.46875 -19.144531 37.367188 -21.234375 31.171875 -21.234375 L 17.5625 -21.234375 L 17.5625 -8.78125 Z M 31.171875 -8.78125 "/></g></g><g style="fill:#1d5366;fill-opacity:1;"><g transform="translate(453.50074, 407.803037)"><path style="stroke:none" d="M 51.84375 0 L 51.765625 -30.234375 L 36.9375 -5.328125 L 31.6875 -5.328125 L 16.921875 -29.59375 L 16.921875 0 L 5.96875 0 L 5.96875 -50.40625 L 15.625 -50.40625 L 34.484375 -19.078125 L 53.0625 -50.40625 L 62.640625 -50.40625 L 62.78125 0 Z M 51.84375 0 "/></g></g><g style="fill:#1d5366;fill-opacity:1;"><g transform="translate(522.249607, 407.803037)"><path style="stroke:none" d="M 39.171875 -10.796875 L 15.765625 -10.796875 L 11.296875 0 L -0.640625 0 L 21.8125 -50.40625 L 33.34375 -50.40625 L 55.875 0 L 43.625 0 Z M 35.5 -19.65625 L 27.5 -38.953125 L 19.515625 -19.65625 Z M 35.5 -19.65625 "/></g></g><g style="fill:#1d5366;fill-opacity:1;"><g transform="translate(577.392686, 407.803037)"><path style="stroke:none" d="M 52.203125 -50.40625 L 52.203125 0 L 42.625 0 L 17.5 -30.59375 L 17.5 0 L 5.96875 0 L 5.96875 -50.40625 L 15.625 -50.40625 L 40.6875 -19.796875 L 40.6875 -50.40625 Z M 52.203125 -50.40625 "/></g></g><path style="fill:none;stroke-width:12;stroke-linecap:butt;stroke-linejoin:miter;stroke:#4ba28a;stroke-opacity:1;stroke-miterlimit:4;" d="M -0.00166092 5.998498 L 658.982747 5.998498 " transform="matrix(0.75,-0.000000000000000093,0.000000000000000093,0.75,135.579371,426.571439)" class="splash-part"/><path style="fill:none;stroke-width:12;stroke-linecap:butt;stroke-linejoin:miter;stroke:#1d5366;stroke-opacity:1;stroke-miterlimit:4;" d="M -0.00166092 5.999983 L 658.982747 5.999983 " transform="matrix(0.75,-0.000000000000000093,0.000000000000000093,0.75,135.579371,331.390638)" class="splash-part"/></g></svg>
