<svg xmlns="http://www.w3.org/2000/svg" xmlns:xlink="http://www.w3.org/1999/xlink" width="1024" zoomAndPan="magnify" viewBox="0 0 768 767.999994" height="1024" preserveAspectRatio="xMidYMid meet" version="1.2"><defs><clipPath id="be170a2738"><path d="M 79.800781 303.128906 L 440.539062 303.128906 L 440.539062 612.878906 L 79.800781 612.878906 Z M 79.800781 303.128906 "/></clipPath><clipPath id="17a5ee42eb"><path d="M 440.539062 458.132812 L 350.351562 613.136719 L 169.984375 613.136719 L 79.800781 458.132812 L 169.984375 303.128906 L 350.351562 303.128906 Z M 440.539062 458.132812 "/></clipPath><clipPath id="95e36249dc"><path d="M 336.789062 155.820312 L 697.660156 155.820312 L 697.660156 465.832031 L 336.789062 465.832031 Z M 336.789062 155.820312 "/></clipPath><clipPath id="e52e26c13e"><path d="M 697.53125 310.828125 L 607.34375 465.832031 L 426.972656 465.832031 L 336.789062 310.828125 L 426.972656 155.820312 L 607.34375 155.820312 Z M 697.53125 310.828125 "/></clipPath><clipPath id="40db9c8430"><path d="M 0.789062 0.820312 L 361.660156 0.820312 L 361.660156 310.832031 L 0.789062 310.832031 Z M 0.789062 0.820312 "/></clipPath><clipPath id="9fc8b8e10a"><path d="M 361.53125 155.828125 L 271.34375 310.832031 L 90.972656 310.832031 L 0.789062 155.828125 L 90.972656 0.820312 L 271.34375 0.820312 Z M 361.53125 155.828125 "/></clipPath><clipPath id="010e0d1879"><rect x="0" width="362" y="0" height="311"/></clipPath><clipPath id="59611dc91e"><path d="M 336.789062 155.820312 L 697.527344 155.820312 L 697.527344 465.570312 L 336.789062 465.570312 Z M 336.789062 155.820312 "/></clipPath><clipPath id="2a0185ff4e"><path d="M 697.527344 310.824219 L 607.34375 465.828125 L 426.972656 465.828125 L 336.789062 310.824219 L 426.972656 155.820312 L 607.34375 155.820312 Z M 697.527344 310.824219 "/></clipPath><clipPath id="d928641275"><path d="M 336.789062 450.492188 L 697.660156 450.492188 L 697.660156 760.503906 L 336.789062 760.503906 Z M 336.789062 450.492188 "/></clipPath><clipPath id="d999fbe716"><path d="M 697.53125 605.496094 L 607.34375 760.503906 L 426.972656 760.503906 L 336.789062 605.496094 L 426.972656 450.492188 L 607.34375 450.492188 Z M 697.53125 605.496094 "/></clipPath><clipPath id="4102d54511"><path d="M 0.789062 0.492188 L 361.660156 0.492188 L 361.660156 310.503906 L 0.789062 310.503906 Z M 0.789062 0.492188 "/></clipPath><clipPath id="4dcfc0e7bd"><path d="M 361.53125 155.496094 L 271.34375 310.503906 L 90.972656 310.503906 L 0.789062 155.496094 L 90.972656 0.492188 L 271.34375 0.492188 Z M 361.53125 155.496094 "/></clipPath><clipPath id="3b56078912"><rect x="0" width="362" y="0" height="311"/></clipPath><clipPath id="71522365fa"><path d="M 336.789062 450.492188 L 697.527344 450.492188 L 697.527344 760.242188 L 336.789062 760.242188 Z M 336.789062 450.492188 "/></clipPath><clipPath id="0b0c0ce426"><path d="M 697.527344 605.496094 L 607.34375 760.5 L 426.972656 760.5 L 336.789062 605.496094 L 426.972656 450.492188 L 607.34375 450.492188 Z M 697.527344 605.496094 "/></clipPath><clipPath id="5a0cd0584a"><path d="M 79.800781 8.996094 L 440.671875 8.996094 L 440.671875 319.007812 L 79.800781 319.007812 Z M 79.800781 8.996094 "/></clipPath><clipPath id="bc2e8f0449"><path d="M 440.539062 164.003906 L 350.355469 319.007812 L 169.984375 319.007812 L 79.800781 164.003906 L 169.984375 8.996094 L 350.355469 8.996094 Z M 440.539062 164.003906 "/></clipPath><clipPath id="7af85426ea"><path d="M 0.800781 0.996094 L 361.640625 0.996094 L 361.640625 311.007812 L 0.800781 311.007812 Z M 0.800781 0.996094 "/></clipPath><clipPath id="71779a9eae"><path d="M 361.539062 156.003906 L 271.355469 311.007812 L 90.984375 311.007812 L 0.800781 156.003906 L 90.984375 0.996094 L 271.355469 0.996094 Z M 361.539062 156.003906 "/></clipPath><clipPath id="bcc2e9e79c"><rect x="0" width="362" y="0" height="312"/></clipPath><clipPath id="63528427f5"><path d="M 79.800781 8.996094 L 440.539062 8.996094 L 440.539062 318.746094 L 79.800781 318.746094 Z M 79.800781 8.996094 "/></clipPath><clipPath id="70b033d0a6"><path d="M 440.539062 164 L 350.351562 319.003906 L 169.984375 319.003906 L 79.800781 164 L 169.984375 8.996094 L 350.351562 8.996094 Z M 440.539062 164 "/></clipPath></defs><g id="3892132814"><rect x="0" width="768" y="0" height="767.999994" style="fill:#ffffff;fill-opacity:1;stroke:none;"/><g clip-rule="nonzero" clip-path="url(#be170a2738)"><g clip-rule="nonzero" clip-path="url(#17a5ee42eb)"><path style="fill:none;stroke-width:40;stroke-linecap:butt;stroke-linejoin:miter;stroke:#e68731;stroke-opacity:1;stroke-miterlimit:4;" d="M 480.984193 206.674276 L 360.734179 413.346174 L 120.244568 413.346174 L -0.000237069 206.674276 L 120.244568 0.00237713 L 360.734179 0.00237713 Z M 480.984193 206.674276 " transform="matrix(0.75,0,0,0.75,79.800959,303.127123)"/></g></g><g clip-rule="nonzero" clip-path="url(#95e36249dc)"><g clip-rule="nonzero" clip-path="url(#e52e26c13e)"><g transform="matrix(1,0,0,1,336,155)"><g clip-path="url(#010e0d1879)"><g clip-rule="nonzero" clip-path="url(#40db9c8430)"><g clip-rule="nonzero" clip-path="url(#9fc8b8e10a)"><path style=" stroke:none;fill-rule:nonzero;fill:#ffffff;fill-opacity:1;" d="M 0.789062 0.820312 L 361.660156 0.820312 L 361.660156 310.832031 L 0.789062 310.832031 Z M 0.789062 0.820312 "/></g></g></g></g></g></g><g clip-rule="nonzero" clip-path="url(#59611dc91e)"><g clip-rule="nonzero" clip-path="url(#2a0185ff4e)"><path style="fill:none;stroke-width:40;stroke-linecap:butt;stroke-linejoin:miter;stroke:#e68731;stroke-opacity:1;stroke-miterlimit:4;" d="M 480.982704 206.671128 L 360.737899 413.343026 L 120.24308 413.343026 L -0.00172565 206.671128 L 120.24308 -0.00077092 L 360.737899 -0.00077092 Z M 480.982704 206.671128 " transform="matrix(0.75,0,0,0.75,336.790357,155.820891)"/></g></g><g clip-rule="nonzero" clip-path="url(#d928641275)"><g clip-rule="nonzero" clip-path="url(#d999fbe716)"><g transform="matrix(1,0,0,1,336,450)"><g clip-path="url(#3b56078912)"><g clip-rule="nonzero" clip-path="url(#4102d54511)"><g clip-rule="nonzero" clip-path="url(#4dcfc0e7bd)"><path style=" stroke:none;fill-rule:nonzero;fill:#ffffff;fill-opacity:1;" d="M 0.789062 0.492188 L 361.660156 0.492188 L 361.660156 310.503906 L 0.789062 310.503906 Z M 0.789062 0.492188 "/></g></g></g></g></g></g><g clip-rule="nonzero" clip-path="url(#71522365fa)"><g clip-rule="nonzero" clip-path="url(#0b0c0ce426)"><path style="fill:none;stroke-width:40;stroke-linecap:butt;stroke-linejoin:miter;stroke:#1d5366;stroke-opacity:1;stroke-miterlimit:4;" d="M 480.982704 206.672152 L 360.737899 413.34405 L 120.24308 413.34405 L -0.00172565 206.672152 L 120.24308 0.000253053 L 360.737899 0.000253053 Z M 480.982704 206.672152 " transform="matrix(0.75,0,0,0.75,336.790357,450.491998)"/></g></g><g clip-rule="nonzero" clip-path="url(#5a0cd0584a)"><g clip-rule="nonzero" clip-path="url(#bc2e8f0449)"><g transform="matrix(1,0,0,1,79,8)"><g clip-path="url(#bcc2e9e79c)"><g clip-rule="nonzero" clip-path="url(#7af85426ea)"><g clip-rule="nonzero" clip-path="url(#71779a9eae)"><path style=" stroke:none;fill-rule:nonzero;fill:#ffffff;fill-opacity:1;" d="M 0.800781 0.996094 L 361.671875 0.996094 L 361.671875 311.007812 L 0.800781 311.007812 Z M 0.800781 0.996094 "/></g></g></g></g></g></g><g clip-rule="nonzero" clip-path="url(#63528427f5)"><g clip-rule="nonzero" clip-path="url(#70b033d0a6)"><path style="fill:none;stroke-width:40;stroke-linecap:butt;stroke-linejoin:miter;stroke:#4ba28a;stroke-opacity:1;stroke-miterlimit:4;" d="M 480.984193 206.670745 L 360.734179 413.342643 L 120.244568 413.342643 L -0.000237069 206.670745 L 120.244568 -0.00115345 L 360.734179 -0.00115345 Z M 480.984193 206.670745 " transform="matrix(0.75,0,0,0.75,79.800959,8.996959)"/></g></g></g></svg>